<?xml version="1.0" encoding="UTF-8"?>
<svg width="121px" height="58px" viewBox="0 0 121 58" version="1.1" xmlns="http://www.w3.org/2000/svg" xmlns:xlink="http://www.w3.org/1999/xlink">
    <!-- Generator: Sketch 47.1 (45422) - http://www.bohemiancoding.com/sketch -->
    <title>Powered-by-Logo-Large-black</title>
    <desc>Created with Sketch.</desc>
    <defs></defs>
    <g id="Page-1" stroke="none" stroke-width="1" fill="none" fill-rule="evenodd">
        <g id="Powered-by-EF-SET-Badge-2" transform="translate(-17.000000, -16.000000)">
            <g id="Powered-by-Logo-Large-black" transform="translate(17.000000, 14.000000)">
                <path d="M57.5914329,37.7722792 C57.5914329,41.4772187 59.708513,45.0723668 64.8719438,45.0723668 C70.3699541,45.0723668 72.4870342,41.1835786 72.4870342,37.7722792 C72.4870342,28.7113872 59.0031692,32.819758 59.0031692,24.6765558 C59.0031692,21.6319179 60.9718387,18.6603016 65.0208789,18.6603016 C68.8465165,18.6603016 71.2609422,20.7882855 71.2609422,24.493225 L71.2609422,25.1167569 L72.0040441,25.1167569 L72.0040441,24.5662466 C72.0040441,21.484839 70.2582528,18 65.094822,18 C59.8946818,18 58.2600673,21.9985795 58.2600673,24.5294768 C58.2600673,28.9682574 61.2319506,30.2153212 65.2432326,31.4629029 C68.3630021,32.4530964 71.7444567,33.5535991 71.7444567,37.5889484 C71.7444567,42.3208511 68.5496953,44.4120652 64.8347101,44.4120652 C60.674493,44.4120652 58.3345348,41.7708587 58.3345348,37.7722792 L58.3345348,36.6350067 L57.5914329,36.6350067 L57.5914329,37.7722792 Z M83.9644715,44.6321658 L96.3344702,44.6321658 L96.3344702,43.9718641 L84.7080978,43.9718641 L84.7080978,31.2795721 L95.2200795,31.2795721 L95.2200795,30.6187526 L84.7080978,30.6187526 L84.7080978,19.1005027 L96.0371245,19.1005027 L96.0371245,18.4402011 L83.9644715,18.4402011 L83.9644715,44.6321658 Z M113.05033,44.6321658 L113.05033,19.1005027 L105.843762,19.1005027 L105.843762,18.4402011 L121,18.4402011 L121,19.1005027 L113.792908,19.1005027 L113.792908,44.6321658 L113.05033,44.6321658 Z M8.99356363,18.4411333 L11.8574166,18.4411333 C10.3984825,19.9026009 9.11994864,21.4479656 8.03230335,23.0668699 L8.99356363,18.4411333 Z M10.3519665,28.1125065 C11.5245677,25.5324103 13.2436137,23.1154474 15.4608578,20.9289427 C16.3885553,20.0138423 17.3702679,19.1836748 18.3986538,18.4405118 L22.9301596,18.4405118 C22.7827978,18.5073188 22.6364849,18.5756794 22.4906964,18.6471474 C20.5293688,19.5917671 18.7274646,20.8662787 17.1369014,22.4349483 C15.4687241,24.0813003 14.1304064,25.885089 13.1623287,27.7997048 C12.2251917,29.6532103 11.6567213,31.5564327 11.4747479,33.4570656 C11.1050324,37.3080483 12.3620651,40.8679804 15.0109062,43.4791496 C15.5615463,44.0224096 16.1682992,44.5035235 16.8259208,44.9173125 L12.1381381,44.9173125 C11.0866777,43.7448239 10.2586199,42.4205955 9.67284374,40.9694856 C8.99581863,39.2915426 8.65232409,37.4779141 8.65232409,35.5767633 C8.65232409,33.1049047 9.2249898,30.5910976 10.3519665,28.1125065 Z M7.76317144,35.577333 C7.76317144,37.5898288 8.12816716,39.5142843 8.84714581,41.2926967 C9.37628472,42.6034602 10.0894947,43.8168616 10.9773364,44.9173643 L7.00223927,44.9173643 C6.56539813,44.1918093 6.18624309,43.4346634 5.86739625,42.6474803 C5.34717246,41.3657183 4.99109187,40.0197388 4.80072772,38.6235245 L7.49519326,25.6505395 C8.81358298,23.2413449 10.5467882,20.970943 12.6654416,18.8818005 C12.8169987,18.7342036 12.9690802,18.5866068 13.1227351,18.4410815 L16.939982,18.4410815 C16.2115638,19.0200754 15.5077933,19.6430894 14.8323415,20.3101235 C12.5380077,22.5717213 10.7576047,25.0756887 9.54042791,27.7541828 C8.36153368,30.3461904 7.76317144,32.9796287 7.76317144,35.577333 Z M30.6304681,35.6274123 C29.735809,36.5093681 28.7074231,37.1494723 27.6554383,37.5373672 L27.9438688,36.1535821 C28.694837,35.8340479 29.4064738,35.3643274 30.0058849,34.7723864 C30.9954638,33.7972116 31.593826,32.5843281 31.6934657,31.356426 C31.7931053,30.1207557 31.3887781,28.9850369 30.5507563,28.1590125 C30.3079503,27.9202681 30.0315814,27.7182935 29.729516,27.555678 L30.0363012,26.0760845 C30.6420053,26.2992923 31.1816326,26.6385061 31.6378772,27.0875112 C32.5938933,28.0310952 33.0994334,29.2242991 33.0994334,30.5407593 C33.0994334,32.250811 32.2226046,34.0571891 30.6304681,35.6274123 Z M30.8076693,31.2860974 C30.7248111,32.3068461 30.2176977,33.3250053 29.3770539,34.1520654 C29.0141558,34.5119946 28.6040601,34.8180638 28.1693166,35.0650943 L29.5396238,28.4667389 C29.6764972,28.5589222 29.8034066,28.6635347 29.9214009,28.7785049 C30.5722051,29.4196448 30.8868566,30.3098868 30.8076693,31.2860974 Z M33.9887433,30.5406039 C33.9887433,28.986953 33.3930032,27.5788274 32.265502,26.4684849 C31.6938852,25.9039918 30.9953589,25.4808808 30.2155476,25.2136529 L30.5653352,23.5294953 C31.6944096,23.8117419 32.6976234,24.3617343 33.5041801,25.1582393 C36.598253,28.2090918 36.0124768,33.3853387 32.142788,37.1995517 C30.6529132,38.6703412 28.8940114,39.6921256 27.1104619,40.1592566 L27.4487122,38.5336199 C28.8326544,38.1239739 30.1526173,37.3373087 31.2591417,36.2471637 C33.0196168,34.5117356 33.9887433,32.4842212 33.9887433,30.5406039 Z M5.04169831,42.9723487 C5.31282301,43.6419722 5.6248524,44.2908804 5.97726206,44.9175196 L3.49308859,44.9175196 L4.33740341,40.8531689 C4.52671872,41.5756166 4.76165849,42.2814919 5.04169831,42.9723487 Z M16.3474408,24.5945748 C16.7879529,24.0668514 17.2604545,23.5525929 17.7659946,23.0543889 C20.0262411,20.8269714 22.6677403,19.2759099 25.3527663,18.4410815 L27.8516235,18.4410815 L27.5637174,19.8321169 C24.4617781,20.2780147 21.4400751,21.8249331 19.0078191,24.2211807 C18.8824829,24.3449549 18.7602933,24.4697648 18.6391524,24.5945748 L16.3474408,24.5945748 Z M32.7714092,37.8203388 C36.9998007,33.6518934 37.5855769,27.9422264 34.1343745,24.5386952 C33.1993352,23.6178981 32.042991,22.9871158 30.7445292,22.6696531 L31.1472831,20.7301789 C32.8972698,21.032623 34.4909796,21.7928761 35.7495855,23.0337253 C37.4366419,24.6971675 38.3449358,26.7438437 38.4283185,29.0292641 C38.4325138,29.1431985 38.4346115,29.2602402 38.4346115,29.3757283 C38.4340871,29.8671998 38.3979021,30.3674754 38.3229102,30.876555 C37.9070458,33.6896989 36.3741687,36.5251118 34.0037942,38.860767 C31.9134595,40.9219438 29.2420684,42.3368019 26.5507494,42.8588286 L26.9136474,41.1083819 C28.9940181,40.6567874 31.0534121,39.5143361 32.7714092,37.8203388 Z M24.2552094,28.3750217 C24.0664186,28.5236543 23.8839207,28.6847161 23.7092891,28.8566535 C22.5256751,30.0239632 21.8743466,31.4367498 21.8743466,32.8345177 C21.8743466,33.4730682 22.0169886,34.0805457 22.2875888,34.6196626 L20.7048919,34.6196626 C20.5827022,34.1804972 20.5202963,33.7149199 20.5202963,33.2265556 C20.5202963,31.5667386 21.2796552,29.8173276 22.6153508,28.3750217 L24.2552094,28.3750217 Z M26.7984325,23.5198627 L26.5760788,24.5944712 L23.9655203,24.5944712 C24.872241,24.0936778 25.8282571,23.7306413 26.7984325,23.5198627 Z M36.3780494,22.4137668 C35.3208204,21.3707492 34.0370423,20.6136033 32.5644734,20.1630446 C32.1596218,20.0413419 31.7474284,19.942944 31.3263198,19.8694045 L31.623141,18.4405636 L34.2200646,18.4405636 C35.6307521,18.9532684 36.915579,19.7414873 38.0021755,20.8124706 C39.1244324,21.9202237 39.9755647,23.1900744 40.5366932,24.5945748 L39.3504571,24.5945748 L38.9314462,26.6122494 C38.9183357,26.5682293 38.9052252,26.5242092 38.8915903,26.4812249 C38.4222352,24.9627901 37.5763471,23.5950594 36.3780494,22.4137668 Z M41.4865211,24.5945748 C40.8850124,22.9487406 39.9248009,21.469665 38.6310589,20.1925639 C37.9351547,19.506886 37.1563923,18.9216775 36.3026379,18.4410815 L41.1514173,18.4410815 C42.8012399,20.1910103 43.9371318,22.2863675 44.5118951,24.5945748 L41.4865211,24.5945748 Z M26.9915236,22.5882418 C25.3558603,22.8803282 23.7553331,23.5701492 22.3184247,24.594523 L19.8924617,24.594523 C22.1180966,22.4955407 24.7737551,21.1972064 27.3717275,20.7523443 L26.9915236,22.5882418 Z M23.6603608,38.6416504 L23.3168663,40.2683229 C22.1579,40.0042023 21.1048663,39.4516204 20.2091585,38.6354358 L23.6393841,38.6354358 L23.6624585,38.6354358 L23.6603608,38.6416504 Z M15.2501986,34.2447148 C15.2501986,32.2663993 15.8191934,30.2637433 16.8926794,28.3750217 L18.7947476,28.3750217 C17.7763256,30.0540005 17.2204413,31.8992198 17.2204413,33.7035264 C17.2204413,34.0142566 17.2372227,34.3187722 17.2702612,34.6196626 L15.2580649,34.6196626 C15.2538696,34.4953705 15.2501986,34.3700427 15.2501986,34.2447148 Z M23.1354697,41.1268704 L22.7458263,42.971054 C20.824879,42.6882895 19.1367738,41.8669261 17.8026515,40.5520196 C17.2263148,39.9828655 16.7401783,39.3386182 16.3526325,38.6353322 L18.9773503,38.6353322 C19.1037354,38.7824112 19.2353646,38.9237934 19.3738112,39.0615505 C20.4389065,40.1097469 21.7169159,40.8094077 23.1354697,41.1268704 Z M12.3590235,33.539668 C12.6422098,30.584624 13.9422448,27.5959176 16.0724354,24.9314063 L15.3623719,28.3737788 L15.8831201,28.3737788 C14.8867237,30.2692329 14.3607313,32.2641207 14.3607313,34.2439898 C14.3607313,34.3703534 14.3649267,34.4951633 14.369122,34.6194554 L14.0560438,34.6194554 L13.2416209,38.6361609 L15.3534568,38.6361609 C15.8117991,39.5740481 16.4232718,40.4316634 17.17424,41.1712012 C18.6352717,42.6114356 20.4754585,43.5151425 22.5647444,43.8320873 L22.3355732,44.9175714 L18.7076416,44.9175714 C17.5455288,44.4131528 16.5155696,43.7233318 15.6392652,42.8610555 C13.1802638,40.4358065 12.0155289,37.1254943 12.3590235,33.539668 Z M18.1089122,33.7035264 C18.1089122,31.8955947 18.7251047,30.0353567 19.8442152,28.3750217 L21.450511,28.3750217 C20.9806315,28.9679985 20.5930857,29.5967092 20.2967889,30.2559751 C19.855228,31.2373646 19.6307766,32.23688 19.6307766,33.2270735 C19.6307766,33.7050801 19.6858406,34.1722111 19.7912488,34.6196626 L18.1639763,34.6196626 C18.1277913,34.3213616 18.1089122,34.0158102 18.1089122,33.7035264 Z M26.3580253,43.7825259 C29.3435435,43.2853576 32.326964,41.7555293 34.6333594,39.4804665 C35.4509288,38.6746396 36.1735784,37.8108097 36.792393,36.9081385 L36.0513887,40.4680706 C35.9596154,40.5607718 35.8667932,40.6565803 35.7718733,40.7487636 C33.879769,42.615734 31.5634097,44.044575 29.1086037,44.9172089 L26.1225611,44.9172089 L26.3580253,43.7825259 Z M35.1256316,44.9174678 L31.3686929,44.9174678 C32.9393282,44.1520358 34.4197634,43.1670212 35.7344822,41.9940147 L35.1256316,44.9174678 Z M41.3193363,29.3758836 C41.3030793,29.7228657 41.2747607,30.0714014 41.2312339,30.4220086 C41.0141244,32.1719374 40.4524715,33.9301523 39.5845578,35.6215602 L37.591765,35.6215602 C38.4203473,34.1300554 38.9720362,32.565011 39.2027806,31.0035919 C39.2840656,30.4535995 39.3223482,29.9103395 39.3223482,29.3758836 L41.3193363,29.3758836 Z M46.5297027,18.4411333 C46.9434694,19.1475266 47.3053186,19.8855107 47.6131526,20.6530143 C48.116595,21.9083642 48.4695291,23.2274138 48.6698572,24.5946266 L45.4273736,24.5946266 C44.8945638,22.3190459 43.8520185,20.2309391 42.3364472,18.4411333 L46.5297027,18.4411333 Z M47.5480722,18.4411333 L50.1109085,18.4411333 L49.2152006,22.7566576 C49.0138237,21.9264901 48.7558095,21.1180738 48.4395847,20.3308906 C48.1789484,19.6799109 47.8816028,19.0501644 47.5480722,18.4411333 Z M45.7400323,30.0707799 C45.76468,29.838768 45.7846079,29.6067562 45.7998161,29.3757801 L47.6090621,29.3757801 L46.3310527,35.6219745 L44.2821471,35.6219745 C45.045177,33.8052388 45.540753,31.9372325 45.7400323,30.0707799 Z M44.9090902,29.3758836 C44.8944065,29.5773404 44.877625,29.7772435 44.855075,29.9787002 C44.6526492,31.8767437 44.1292789,33.7773766 43.3159048,35.6215602 L40.5731927,35.6215602 C41.3766029,33.9612253 41.901022,32.2423695 42.1144606,30.5286926 C42.1616583,30.1407978 42.1931235,29.7580818 42.2083316,29.3758836 L44.9090902,29.3758836 Z M24.3384348,29.4765084 C24.6950398,29.1238297 25.0899274,28.8260466 25.5042185,28.5904095 L24.2707847,34.6196108 L23.318964,34.6196108 C22.9544927,34.11571 22.7625552,33.5071967 22.7625552,32.8344659 C22.7625552,31.6702635 23.3221105,30.4786133 24.3384348,29.4765084 Z M1,59.9254248 L1,55.4933766 L3.22458599,55.4933766 L3.22458599,55.8284473 L1.40170506,55.8284473 L1.40170506,57.4432085 L3.10501843,57.4432085 L3.10501843,57.7772435 L1.40170506,57.7772435 L1.40170506,59.5908719 L3.28122326,59.5908719 L3.28122326,59.9254248 L1,59.9254248 Z M5.86556078,59.9254248 L5.86556078,55.4933766 L8.09014678,55.4933766 L8.09014678,55.8284473 L6.26674143,55.8284473 L6.26674143,57.4432085 L7.97057921,57.4432085 L7.97057921,57.7772435 L6.26674143,57.7772435 L6.26674143,59.9254248 L5.86556078,59.9254248 Z M16.5700043,56.6296133 L16.1682992,56.6296133 C16.1682992,56.0832461 15.9171024,55.7533542 15.3633158,55.7533542 C14.8163467,55.7533542 14.5142812,56.1081045 14.5142812,56.5488235 C14.5142812,57.8647658 16.6895718,57.1511221 16.6895718,58.7032194 C16.6895718,59.5660135 16.1494201,60 15.3318507,60 C14.4828161,60 14.0249982,59.5597989 14.0249982,58.6845756 L14.0249982,58.5540689 L14.4261788,58.5540689 L14.4261788,58.7218632 C14.4261788,59.292571 14.7219512,59.6654472 15.3192646,59.6654472 C15.8919303,59.6654472 16.2878668,59.3863079 16.2878668,58.7653654 C16.2878668,57.4432085 14.1125762,58.2003544 14.1131006,56.5923257 C14.1131006,55.896808 14.5709185,55.4193193 15.3507298,55.4193193 C16.1871783,55.4193193 16.5700043,55.834662 16.5700043,56.6296133 Z M20.1350056,59.9254248 L20.1350056,55.8284473 L18.9786614,55.8284473 L18.9786614,55.4933766 L21.6930549,55.4933766 L21.6930549,55.8284473 L20.5367107,55.8284473 L20.5367107,59.9254248 L20.1350056,59.9254248 Z M23.4535299,59.9254248 L24.7803103,55.4933766 L25.2832283,55.4933766 L26.6094843,59.9254248 L26.1820827,59.9254248 L25.8176114,58.6343409 L24.2459272,58.6343409 L23.8814559,59.9254248 L23.4535299,59.9254248 Z M24.3340296,58.2992702 L25.729509,58.2992702 L25.0378001,55.8041068 L25.0252141,55.8041068 L24.3340296,58.2992702 Z M29.030203,59.9254248 L29.030203,55.4933766 L29.5698303,55.4933766 L31.2867786,59.354717 L31.2993647,59.354717 L31.2993647,55.4933766 L31.7010697,55.4933766 L31.7010697,59.9254248 L31.160918,59.9254248 L29.4439697,56.0651202 L29.4313837,56.0651202 L29.4313837,59.9254248 L29.030203,59.9254248 Z M34.4799668,59.9254248 L34.4799668,55.4933766 L35.5607946,55.4933766 C36.8686959,55.4933766 37.1885916,56.2629517 37.1885916,57.7094007 C37.1885916,59.1563676 36.8686959,59.9254248 35.5607946,59.9254248 L34.4799668,59.9254248 Z M34.8816718,55.8284473 L34.8816718,59.5908719 L35.5356225,59.5908719 C36.4161222,59.5908719 36.787411,59.1563676 36.787411,57.7150974 C36.787411,56.2567371 36.4161222,55.8284473 35.5356225,55.8284473 L34.8816718,55.8284473 Z M39.5715522,59.9254248 L40.8978082,55.4933766 L41.4007261,55.4933766 L42.7269822,59.9254248 L42.2995806,59.9254248 L41.9351092,58.6343409 L40.3634251,58.6343409 L39.9989538,59.9254248 L39.5715522,59.9254248 Z M40.4515275,58.2992702 L41.8470068,58.2992702 L41.1558224,55.8041068 L41.1432363,55.8041068 L40.4515275,58.2992702 Z M45.1477009,59.9254248 L45.1477009,55.4933766 L46.486543,55.4933766 C47.2411821,55.4933766 47.6491802,55.9087193 47.6491802,56.6047549 C47.6491802,57.1386929 47.4357416,57.6166995 46.8384282,57.7285624 L46.8384282,57.7409916 C47.3979834,57.7907084 47.5862499,58.1004028 47.605129,58.7891881 L47.6177151,59.2734093 C47.6240081,59.5157788 47.6491802,59.7514159 47.8059815,59.9254248 L47.3350531,59.9254248 C47.2411821,59.7700597 47.222303,59.5468518 47.21601,59.3044823 L47.2034239,58.932124 C47.1719588,58.1496018 47.0398052,57.9015355 46.3103381,57.9015355 L45.549406,57.9015355 L45.549406,59.9254248 L45.1477009,59.9254248 Z M45.549406,55.8284473 L45.549406,57.5664648 L46.2411148,57.5664648 C46.8761864,57.5664648 47.2474751,57.2878434 47.2474751,56.697974 C47.2474751,56.1510889 47.014633,55.8284473 46.285166,55.8284473 L45.549406,55.8284473 Z M50.3651469,59.9254248 L50.3651469,55.4933766 L51.4459748,55.4933766 C52.7538761,55.4933766 53.0737718,56.2629517 53.0737718,57.7094007 C53.0737718,59.1563676 52.7538761,59.9254248 51.4459748,59.9254248 L50.3651469,59.9254248 Z M50.766852,55.8284473 L50.766852,59.5908719 L51.4208027,59.5908719 C52.3013024,59.5908719 52.6725911,59.1563676 52.6725911,57.7150974 C52.6725911,56.2567371 52.3013024,55.8284473 51.4208027,55.8284473 L50.766852,55.8284473 Z M59.9011846,59.9254248 L59.9011846,55.4933766 L62.1257706,55.4933766 L62.1257706,55.8284473 L60.3028896,55.8284473 L60.3028896,57.4432085 L62.0067274,57.4432085 L62.0067274,57.7772435 L60.3028896,57.7772435 L60.3028896,59.5908719 L62.1824078,59.5908719 L62.1824078,59.9254248 L59.9011846,59.9254248 Z M64.7672698,59.9254248 L64.7672698,55.4933766 L65.3068971,55.4933766 L67.0233209,59.354717 L67.0364314,59.354717 L67.0364314,55.4933766 L67.437612,55.4933766 L67.437612,59.9254248 L66.8979847,59.9254248 L65.1810365,56.0651202 L65.1684504,56.0651202 L65.1684504,59.9254248 L64.7672698,59.9254248 Z M72.5491254,58.0009692 L71.4861278,58.0009692 L71.4861278,57.6664164 L72.9251339,57.6664164 L72.9251339,59.9254248 L72.6120557,59.9254248 L72.6120557,59.1936552 L72.5994696,59.1936552 C72.45473,59.6903056 72.0650865,60 71.6119884,60 C70.6874375,60 70.1792753,59.2993034 70.1792753,57.7099186 C70.1792753,56.1194979 70.6874375,55.4193193 71.6119884,55.4193193 C72.467316,55.4193193 72.850142,55.9703475 72.9004862,56.7347437 L72.4987812,56.7347437 C72.4987812,56.2008057 72.1972402,55.7533542 71.6119884,55.7533542 C70.9769168,55.7533542 70.5809804,56.2686484 70.5809804,57.7099186 C70.5809804,59.150153 70.9769168,59.6654472 71.6119884,59.6654472 C72.2155948,59.6654472 72.5491254,59.1377238 72.5491254,58.0941882 L72.5491254,58.0009692 Z M75.6667972,59.9254248 L75.6667972,55.4933766 L76.0685023,55.4933766 L76.0685023,59.5908719 L77.9286169,59.5908719 L77.9286169,59.9254248 L75.6667972,59.9254248 Z M80.44478,59.9254248 L80.44478,55.4933766 L80.846485,55.4933766 L80.846485,59.9254248 L80.44478,59.9254248 Z M86.0193554,56.6296133 L85.6176504,56.6296133 C85.6176504,56.0832461 85.3664536,55.7533542 84.812667,55.7533542 C84.2656978,55.7533542 83.9641568,56.1081045 83.9641568,56.5488235 C83.9641568,57.8647658 86.1394474,57.1511221 86.1394474,58.7032194 C86.1394474,59.5660135 85.5992957,60 84.7822507,60 C83.9332161,60 83.4743493,59.5597989 83.4743493,58.6845756 L83.4743493,58.5540689 L83.8760544,58.5540689 L83.8760544,58.7218632 C83.8760544,59.292571 84.1718268,59.6654472 84.7686158,59.6654472 C85.3412815,59.6654472 85.7377424,59.3863079 85.7377424,58.7653654 C85.7377424,57.4432085 83.5619273,58.2003544 83.5619273,56.5923257 C83.5619273,55.896808 84.0207941,55.4193193 84.8006054,55.4193193 C85.6375783,55.4193193 86.0193554,55.834662 86.0193554,56.6296133 Z M90.8985511,59.9254248 L90.8985511,57.7150974 L89.1438447,57.7150974 L89.1438447,59.9254248 L88.7416152,59.9254248 L88.7416152,55.4933766 L89.1438447,55.4933766 L89.1438447,57.3810625 L90.8985511,57.3810625 L90.8985511,55.4933766 L91.3002562,55.4933766 L91.3002562,59.9254248 L90.8985511,59.9254248 Z M98.7753266,59.9254248 L98.7753266,55.8284473 L97.6179336,55.8284473 L97.6179336,55.4933766 L100.333376,55.4933766 L100.333376,55.8284473 L99.1765072,55.8284473 L99.1765072,59.9254248 L98.7753266,59.9254248 Z M102.798146,59.9254248 L102.798146,55.4933766 L105.022207,55.4933766 L105.022207,55.8284473 L103.199851,55.8284473 L103.199851,57.4432085 L104.903164,57.4432085 L104.903164,57.7772435 L103.199851,57.7772435 L103.199851,59.5908719 L105.079369,59.5908719 L105.079369,59.9254248 L102.798146,59.9254248 Z M110.033032,56.6296133 L109.631327,56.6296133 C109.631327,56.0832461 109.379606,55.7533542 108.826344,55.7533542 C108.278326,55.7533542 107.977309,56.1081045 107.977309,56.5488235 C107.977309,57.8647658 110.152075,57.1511221 110.152075,58.7032194 C110.152075,59.5660135 109.611924,60 108.794879,60 C107.945844,60 107.488026,59.5597989 107.488026,58.6845756 L107.488026,58.5540689 L107.889207,58.5540689 L107.889207,58.7218632 C107.889207,59.292571 108.185504,59.6654472 108.782293,59.6654472 C109.354434,59.6654472 109.750895,59.3863079 109.750895,58.7653654 C109.750895,57.4432085 107.576129,58.2003544 107.576129,56.5923257 C107.576129,55.896808 108.033947,55.4193193 108.813758,55.4193193 C109.650206,55.4193193 110.033032,55.834662 110.033032,56.6296133 Z M113.598034,59.9254248 L113.598034,55.8284473 L112.441165,55.8284473 L112.441165,55.4933766 L115.156607,55.4933766 L115.156607,55.8284473 L113.999214,55.8284473 L113.999214,59.9254248 L113.598034,59.9254248 Z" id="EFSET-Logo-Copy-4" fill="#000000"></path>
                <text id="Powered-by" font-family="ProximaNova-Regular, Proxima Nova" font-size="9" font-weight="normal" fill="#999999">
                    <tspan x="0" y="8">Powered by</tspan>
                </text>
            </g>
        </g>
    </g>
</svg>