<?xml version="1.0" encoding="UTF-8"?>
<svg width="40px" height="52px" viewBox="0 0 40 52" version="1.1" xmlns="http://www.w3.org/2000/svg" xmlns:xlink="http://www.w3.org/1999/xlink">
    <!-- Generator: Sketch 47.1 (45422) - http://www.bohemiancoding.com/sketch -->
    <title>Powered-by-Logo-Small-white</title>
    <desc>Created with Sketch.</desc>
    <defs></defs>
    <g id="Page-1" stroke="none" stroke-width="1" fill="none" fill-rule="evenodd">
        <g id="Powered-by-EF-SET-Badge-2" transform="translate(-209.000000, -101.000000)">
            <g id="Powered-by-Logo-Small-white" transform="translate(209.000000, 101.000000)">
                <path d="M5.02081414,11.3449739 L7.45559204,11.3449739 C6.2152419,12.5899842 5.1282636,13.9064658 4.2035741,15.2855949 L5.02081414,11.3449739 Z M6.17569515,19.5839249 C7.17261209,17.3859654 8.63410301,15.3269776 10.5191499,13.464315 C11.3078556,12.6847497 12.1424838,11.977538 13.0167924,11.3444444 L16.8693681,11.3444444 C16.7440847,11.4013567 16.619693,11.4595925 16.4957472,11.5204753 C14.8282743,12.3251879 13.2963393,13.4109322 11.9440812,14.7472669 C10.5258376,16.1497786 9.38803259,17.686409 8.56499652,19.317452 C7.7682655,20.8964358 7.28496587,22.5177728 7.13025649,24.136904 C6.8159334,27.4175195 7.88463192,30.4501918 10.136612,32.6746221 C10.6047528,33.1374201 11.1205993,33.5472765 11.6796932,33.8997794 L7.69425467,33.8997794 C6.80032871,32.9009476 6.09633414,31.7728499 5.59832153,30.5366632 C5.02273129,29.1072395 4.73070062,27.5622266 4.73070062,25.9426543 C4.73070062,23.8369015 5.21756703,21.695413 6.17569515,19.5839249 Z M3.97476472,25.9431396 C3.97476472,27.6575656 4.28507518,29.2969911 4.89633328,30.8120037 C5.34619428,31.9286306 5.95254805,32.9623157 6.70736932,33.8998235 L3.32783875,33.8998235 C2.95644706,33.2817301 2.6340987,32.6367248 2.3630229,31.9661309 C1.92074132,30.8742101 1.61801029,29.7275829 1.45616733,28.5381612 L3.74693621,17.4865986 C4.86779899,15.4342285 6.34132782,13.5000948 8.14255519,11.720374 C8.27140537,11.5946377 8.4007014,11.4689014 8.53133497,11.3449297 L11.7766652,11.3449297 C11.1573818,11.8381691 10.5590533,12.3689089 9.98480062,12.9371489 C8.03421404,14.8637826 6.52055886,16.9968886 5.48574481,19.2786723 C4.4834777,21.4867789 3.97476472,23.73018 3.97476472,25.9431396 Z M23.4159825,25.9858017 C22.6553652,26.7371315 21.7810565,27.2824302 20.8866847,27.6128741 L21.1319013,26.4340407 C21.7703562,26.1618326 22.3753724,25.7616822 22.8849771,25.2574133 C23.7262929,24.4266711 24.2350059,23.3934272 24.3197171,22.3473891 C24.4044283,21.2947332 24.0606792,20.3272252 23.3482135,19.6235428 C23.1417857,19.4201588 22.9068237,19.2480985 22.650015,19.109568 L22.9108363,17.8491163 C23.4257911,18.0392649 23.8845691,18.3282379 24.2724572,18.7107411 C25.0852387,19.5145713 25.5150366,20.5310504 25.5150366,21.6525303 C25.5150366,23.1093072 24.7695781,24.6481435 23.4159825,25.9858017 Z M23.5666346,22.2874768 C23.4961906,23.1570429 23.0650552,24.024403 22.3503603,24.7289677 C22.0418333,25.0355879 21.6931798,25.2963254 21.3235715,25.5067683 L22.4885733,19.8856921 C22.6049397,19.9642221 22.712835,20.0533405 22.8131509,20.1512825 C23.3664487,20.6974635 23.6339577,21.4558522 23.5666346,22.2874768 Z M26.2711062,21.652398 C26.2711062,20.3288575 25.7646225,19.1292887 24.8060485,18.1833985 C24.3200738,17.7025121 23.7262038,17.3420679 23.0632273,17.114419 L23.3606081,15.6797011 C24.3205196,15.9201443 25.1734276,16.3886776 25.8591423,17.0672127 C28.4896477,19.6662049 27.991635,24.0758005 24.70172,27.3250923 C23.4350648,28.5780439 21.9396894,29.4484923 20.4233591,29.8464368 L20.7109313,28.4615723 C21.8875251,28.1125988 23.0097255,27.4424462 23.9504655,26.513762 C25.4471784,25.0353673 26.2711062,23.3081471 26.2711062,21.652398 Z M1.66103465,32.2428833 C1.89153826,32.8133292 2.15681803,33.3661279 2.45642813,33.8999559 L0.344444444,33.8999559 L1.0622603,30.4375741 C1.22321156,31.0530204 1.42295163,31.6543489 1.66103465,32.2428833 Z M11.2729011,16.5870322 C11.6474137,16.1374697 12.0491231,15.6993778 12.4789209,15.2749625 C14.4005274,13.3774467 16.6462656,12.0561121 18.9290092,11.3449297 L21.0534766,11.3449297 L20.8087059,12.5299396 C18.1715128,12.9097957 15.6025345,14.2276008 13.5346899,16.2689414 C13.4281321,16.3743834 13.3242494,16.4807078 13.2212585,16.5870322 L11.2729011,16.5870322 Z M25.2361584,27.8539349 C28.8310337,24.3028759 29.3290464,19.4388648 26.3949183,16.5394289 C25.5999707,15.7550106 24.616875,15.2176532 23.5129545,14.9472098 L23.855366,13.2949901 C25.343162,13.5526393 26.6980952,14.2002918 27.7681313,15.2573594 C29.2024254,16.67443 29.9746348,18.417974 30.0455247,20.3649019 C30.0490915,20.4619616 30.0508749,20.5616683 30.0508749,20.6600515 C30.050429,21.0787314 30.0196655,21.5049114 29.9559092,21.9385915 C29.6023514,24.3350821 28.2991367,26.7505434 26.2839021,28.7402658 C24.5067505,30.4961628 22.2355989,31.701467 19.9475052,32.1461766 L20.2560322,30.6549877 C22.0247127,30.2702786 23.7755592,29.2970352 25.2361584,27.8539349 Z M17.9958931,19.8075591 C17.8353877,19.9341778 17.6802325,20.0713848 17.531765,20.2178566 C16.5254852,21.2122767 15.9717416,22.4158161 15.9717416,23.6065613 C15.9717416,24.1505364 16.0930123,24.6680407 16.3230701,25.1273093 L14.9774997,25.1273093 C14.8736171,24.7531885 14.8205611,24.3565676 14.8205611,23.9405347 C14.8205611,22.5265523 15.4661495,21.0362458 16.6017253,19.8075591 L17.9958931,19.8075591 Z M20.1580793,15.6714952 L19.9690396,16.586944 L17.7496065,16.586944 C18.5204783,16.1603228 19.3332599,15.8510555 20.1580793,15.6714952 Z M28.3024359,14.7292226 C27.4036056,13.8406858 26.3121688,13.1956805 25.0602267,12.8118537 C24.7160317,12.7081764 24.3655949,12.6243522 24.0075787,12.5617046 L24.2599288,11.3444886 L26.4677699,11.3444886 C27.667102,11.7812569 28.7594305,12.4527331 29.6832283,13.3650936 C30.6373438,14.308778 31.3609557,15.3905517 31.8380134,16.5870322 L30.8295044,16.5870322 L30.4732716,18.3058701 C30.4621254,18.2683698 30.4509792,18.2308695 30.4393871,18.1942515 C30.0403528,16.9007113 29.3211994,15.7355546 28.3024359,14.7292226 Z M32.645534,16.5870322 C32.1341459,15.1849617 31.3177976,13.9249512 30.2178897,12.837001 C29.6262489,12.2528785 28.9641641,11.7543449 28.2383229,11.3449297 L32.3606369,11.3449297 C33.7632758,12.8356775 34.7289834,14.6206923 35.2176332,16.5870322 L32.645534,16.5870322 Z M20.3222407,14.8778562 C18.9316397,15.1266818 17.5709105,15.7143338 16.349286,16.5869881 L14.2867915,16.5869881 C16.1789719,14.798885 18.436748,13.6928464 20.6454808,13.3138726 L20.3222407,14.8778562 Z M17.4901673,28.5536025 L17.1981367,29.9393494 C16.2128118,29.7143475 15.3175483,29.2436083 14.5560393,28.5483084 L17.4723334,28.5483084 L17.4919507,28.5483084 L17.4901673,28.5536025 Z M10.3400526,24.8078948 C10.3400526,23.1225867 10.8237981,21.4165431 11.7364497,19.8075591 L13.3535417,19.8075591 C12.4877041,21.2378651 12.0151049,22.80979 12.0151049,24.3468616 C12.0151049,24.6115697 12.029372,24.8709836 12.0574605,25.1273093 L10.3467403,25.1273093 C10.3431735,25.021426 10.3400526,24.9146604 10.3400526,24.8078948 Z M17.0439177,30.6707378 L16.7126524,32.2417803 C15.0795098,32.0008959 13.644324,31.3011842 12.5100857,30.1810278 C12.0200984,29.6961709 11.606797,29.1473428 11.277315,28.5482201 L13.5087861,28.5482201 C13.6162355,28.6735153 13.7281435,28.7939575 13.8458474,28.9113114 C14.7513654,29.80426 15.8378979,30.4002944 17.0439177,30.6707378 Z M7.882046,24.2072722 C8.12280411,21.6898983 9.2280622,19.1438477 11.0390982,16.8739758 L10.4354196,19.8065002 L10.878147,19.8065002 C10.0310351,21.4212196 9.58384919,23.1206455 9.58384919,24.8072772 C9.58384919,24.9149251 9.58741598,25.0212496 9.59098276,25.1271328 L9.32481129,25.1271328 L8.63240879,28.548926 L10.4278401,28.548926 C10.8175116,29.3479033 11.3373708,30.0784976 11.9758256,30.7085028 C13.2179592,31.9354248 14.7824411,32.7052842 16.5587009,32.9752864 L16.3638652,33.9 L13.2794863,33.9 C12.2914863,33.4702905 11.4158401,32.8826386 10.6708275,32.1480736 C8.58024453,30.082027 7.59001532,27.2620035 7.882046,24.2072722 Z M12.7704612,24.3468616 C12.7704612,22.8067017 13.294333,21.2219826 14.2457734,19.8075591 L15.6114069,19.8075591 C15.2119268,20.3127103 14.8824449,20.848303 14.6305405,21.4099254 C14.2551362,22.2459617 14.0643131,23.0974394 14.0643131,23.9409759 C14.0643131,24.3481851 14.1111272,24.7461296 14.2007427,25.1273093 L12.8172753,25.1273093 C12.7865117,24.8731895 12.7704612,24.6128932 12.7704612,24.3468616 Z M19.7836559,32.9330655 C22.3218706,32.5095325 24.8583019,31.2062864 26.819143,29.268182 C27.5142206,28.5817057 28.1285997,27.8458172 28.6547007,27.0768402 L28.024717,30.1095125 C27.9466935,30.1884838 27.8677784,30.2701021 27.7870798,30.3486322 C26.1784589,31.9390866 24.2091467,33.1563026 22.1221305,33.8996912 L19.58347,33.8996912 L19.7836559,32.9330655 Z M27.2376609,33.8999118 L24.0436032,33.8999118 C25.3789191,33.2478475 26.637549,32.4087229 27.7552908,31.4094498 L27.2376609,33.8999118 Z M32.5033975,20.6601838 C32.4895762,20.9557745 32.4655004,21.2526888 32.428495,21.5513677 C32.2439138,23.0421154 31.7664102,24.539922 31.0285311,25.9808164 L29.3343074,25.9808164 C30.0387478,24.7102176 30.5077803,23.3769712 30.7039535,22.046813 C30.77306,21.5782797 30.805607,21.1154817 30.805607,20.6601838 L32.5033975,20.6601838 Z M36.9331239,11.3449739 C37.2848983,11.9467436 37.5925336,12.5754253 37.8542466,13.2292543 C38.282261,14.2986749 38.582317,15.4223608 38.7526311,16.5870764 L35.9959507,16.5870764 C35.5429687,14.6485308 34.6566222,12.8696924 33.3681204,11.3449739 L36.9331239,11.3449739 Z M37.7989168,11.3449739 L39.9777778,11.3449739 L39.2162688,15.021328 C39.045063,14.3141162 38.8257056,13.625434 38.5568591,12.9548402 C38.3352724,12.4002768 38.0824764,11.8638017 37.7989168,11.3449739 Z M36.2617654,21.2521593 C36.2827203,21.0545106 36.2996626,20.8568619 36.3125922,20.6600956 L37.850769,20.6600956 L36.7642365,25.9811693 L35.022307,25.9811693 C35.6710164,24.4335094 36.0923431,22.8421726 36.2617654,21.2521593 Z M35.5553187,20.6601838 C35.542835,20.8318029 35.5285678,21.0020984 35.5093963,21.1737175 C35.3372989,22.7906427 34.8923422,24.4097739 34.2008314,25.9808164 L31.8690445,25.9808164 C32.5520842,24.5663928 32.9979325,23.1021159 33.1793928,21.6422508 C33.2195192,21.3118069 33.2462701,20.9857748 33.2591997,20.6601838 L35.5553187,20.6601838 Z M18.0666493,20.7459051 C18.3698262,20.4454614 18.70555,20.1917829 19.0577702,19.9910459 L18.0091348,25.1272652 L17.1999201,25.1272652 C16.8900554,24.6979969 16.7268749,24.1796102 16.7268749,23.6065172 C16.7268749,22.6147442 17.2025951,21.5995887 18.0666493,20.7459051 Z" id="EFSET-Logo-Copy-3" fill="#FFFFFF"></path>
                <path d="M0.344444444,44.0871359 L2.45067934,44.0871359 L2.45067934,43.6516094 L0.830923895,43.6516094 L0.830923895,42.2221892 L2.29589042,42.2221892 L2.29589042,41.7866628 L0.830923895,41.7866628 L0.830923895,40.5359201 L2.38434123,40.5359201 L2.38434123,40.1003936 L0.344444444,40.1003936 L0.344444444,44.0871359 Z M3.85606439,44.0871359 L4.34254384,44.0871359 L4.34254384,42.2221892 L5.80751037,42.2221892 L5.80751037,41.7866628 L4.34254384,41.7866628 L4.34254384,40.5359201 L5.89596118,40.5359201 L5.89596118,40.1003936 L3.85606439,40.1003936 L3.85606439,44.0871359 Z M11.7030024,41.1333731 C11.6919461,40.401912 11.3491992,40.0222222 10.5973673,40.0222222 C9.59676754,40.0222222 9.44197863,40.7536833 9.44197863,41.1222057 C9.44197863,42.5851279 11.3049738,41.9318382 11.3049738,43.0597401 C11.3049738,43.4840992 11.0064523,43.7632828 10.61948,43.7632828 C9.90634538,43.7632828 9.8787045,43.283087 9.8787045,42.8363932 L9.39222505,42.8363932 C9.39222505,43.6851114 9.66310565,44.1653073 10.586311,44.1653073 C11.1446567,44.1653073 11.8135659,43.9028747 11.8135659,42.9815687 C11.8135659,41.5242301 9.95057078,42.1942709 9.95057078,41.0719527 C9.95057078,40.6475936 10.1938105,40.4242466 10.6028955,40.4242466 C11.0672622,40.4242466 11.216523,40.7145976 11.216523,41.1333731 L11.7030024,41.1333731 Z M14.702959,40.5359201 L15.6980307,40.5359201 L15.6980307,40.1003936 L13.2269362,40.1003936 L13.2269362,40.5359201 L14.2164796,40.5359201 L14.2164796,44.0871359 L14.702959,44.0871359 L14.702959,40.5359201 Z M16.5917524,44.0871359 L17.7305565,40.1003936 L18.3828813,40.1003936 L19.444291,44.0871359 L18.9356988,44.0871359 L18.6537619,42.992736 L17.3933378,42.992736 L17.1003445,44.0871359 L16.5917524,44.0871359 Z M18.0401344,40.6643446 L17.492845,42.5907116 L18.5542547,42.5907116 L18.0511907,40.6643446 L18.0401344,40.6643446 Z M20.9184711,44.0871359 L21.4049506,44.0871359 L21.4049506,40.8597731 L21.4160069,40.8597731 L22.6819591,44.0871359 L23.3508684,44.0871359 L23.3508684,40.1003936 L22.8643889,40.1003936 L22.8643889,43.4282625 L22.8533326,43.4282625 L21.5486831,40.1003936 L20.9184711,40.1003936 L20.9184711,44.0871359 Z M25.7261411,40.5024181 L25.7261411,43.6851114 L26.2347333,43.6851114 C27.075016,43.6851114 27.168995,42.8140585 27.168995,42.0993484 C27.168995,41.3288016 27.1192414,40.5024181 26.2347333,40.5024181 L25.7261411,40.5024181 Z M25.2396617,44.0871359 L25.2396617,40.1003936 L26.2955432,40.1003936 C27.5227982,40.1003936 27.6775871,40.9937812 27.6775871,42.0937647 C27.6775871,43.0988258 27.4288192,44.0871359 26.3452968,44.0871359 L25.2396617,44.0871359 Z M29.0964855,44.0871359 L30.2352897,40.1003936 L30.8876144,40.1003936 L31.9490241,44.0871359 L31.440432,44.0871359 L31.158495,42.992736 L29.898071,42.992736 L29.6050777,44.0871359 L29.0964855,44.0871359 Z M30.5448675,40.6643446 L29.9975781,42.5907116 L31.0589879,42.5907116 L30.5559239,40.6643446 L30.5448675,40.6643446 Z M33.4232043,44.0871359 L33.4232043,40.1003936 L34.7002128,40.1003936 C35.3193685,40.1003936 35.711869,40.468916 35.711869,41.099871 C35.711869,41.5353975 35.5626082,41.9932586 35.1037696,42.1049321 L35.1037696,42.1160994 C35.4465165,42.1551851 35.6400027,42.4399524 35.6621154,42.7805565 L35.6952844,43.4617645 C35.7173971,43.9028747 35.7892634,44.0145481 35.9053551,44.0871359 L35.3193685,44.0871359 C35.2364459,44.0033808 35.1977486,43.7074461 35.1866923,43.5120176 L35.1535232,42.8922299 C35.114826,42.34503 34.8163045,42.311528 34.5675366,42.311528 L33.9096837,42.311528 L33.9096837,44.0871359 L33.4232043,44.0871359 Z M33.9096837,40.5024181 L33.9096837,41.9095036 L34.390635,41.9095036 C34.6781001,41.9095036 35.2032768,41.9095036 35.2032768,41.1389567 C35.2032768,40.7480997 34.9434526,40.5024181 34.4901422,40.5024181 L33.9096837,40.5024181 Z M38.0263318,40.5024181 L38.0263318,43.6851114 L38.534924,43.6851114 C39.3752066,43.6851114 39.4691856,42.8140585 39.4691856,42.0993484 C39.4691856,41.3288016 39.419432,40.5024181 38.534924,40.5024181 L38.0263318,40.5024181 Z M37.5398523,44.0871359 L37.5398523,40.1003936 L38.5957339,40.1003936 C39.8229889,40.1003936 39.9777778,40.9937812 39.9777778,42.0937647 C39.9777778,43.0988258 39.7290099,44.0871359 38.6454875,44.0871359 L37.5398523,44.0871359 Z M0.344444444,51.2218286 L2.45067934,51.2218286 L2.45067934,50.7863021 L0.830923895,50.7863021 L0.830923895,49.3568819 L2.29589042,49.3568819 L2.29589042,48.9213555 L0.830923895,48.9213555 L0.830923895,47.6706128 L2.38434123,47.6706128 L2.38434123,47.2350864 L0.344444444,47.2350864 L0.344444444,51.2218286 Z M3.85606439,51.2218286 L4.34254384,51.2218286 L4.34254384,47.9944658 L4.35360019,47.9944658 L5.6195524,51.2218286 L6.28846164,51.2218286 L6.28846164,47.2350864 L5.80198219,47.2350864 L5.80198219,50.5629552 L5.79092584,50.5629552 L4.4862764,47.2350864 L3.85606439,47.2350864 L3.85606439,51.2218286 Z M10.2644483,48.3406535 C10.2589202,48.1340577 10.2312793,47.156915 9.09800329,47.156915 C8.0089527,47.156915 7.82652291,48.2233964 7.82652291,49.2284575 C7.82652291,50.3005226 8.0089527,51.3 9.03719336,51.3 C9.46839105,51.3 9.78349706,51.0208164 9.88853239,50.6802123 L9.89958875,50.6802123 L9.89958875,51.2218286 L10.2644483,51.2218286 L10.2644483,49.1502861 L9.04272153,49.1502861 L9.04272153,49.5523105 L9.82219429,49.5523105 C9.82219429,50.0827594 9.77244071,50.8979756 9.09800329,50.8979756 C8.42356587,50.8979756 8.33511506,50.1497635 8.33511506,49.2284575 C8.33511506,48.3071515 8.42356587,47.5589394 9.09800329,47.5589394 C9.57895456,47.5589394 9.73374348,47.9218781 9.75585618,48.3406535 L10.2644483,48.3406535 Z M11.8025096,51.2218286 L13.89216,51.2218286 L13.89216,50.7863021 L12.288989,50.7863021 L12.288989,47.2350864 L11.8025096,47.2350864 L11.8025096,51.2218286 Z M15.2090942,51.2218286 L15.6955737,51.2218286 L15.6955737,47.2350864 L15.2090942,47.2350864 L15.2090942,51.2218286 Z M19.4504333,48.2680658 C19.439377,47.5366047 19.0966301,47.156915 18.3447982,47.156915 C17.3441984,47.156915 17.1894095,47.8883761 17.1894095,48.2568984 C17.1894095,49.7198207 19.0524047,49.066531 19.0524047,50.1944328 C19.0524047,50.6187919 18.7538832,50.8979756 18.3669109,50.8979756 C17.6537763,50.8979756 17.6261354,50.4177797 17.6261354,49.9710859 L17.1396559,49.9710859 C17.1396559,50.8198042 17.4105365,51.3 18.3337419,51.3 C18.8920876,51.3 19.5609968,51.0375674 19.5609968,50.1162614 C19.5609968,48.6589229 17.6980017,49.3289636 17.6980017,48.2066454 C17.6980017,47.7822863 17.9412414,47.5589394 18.3503264,47.5589394 C18.8146931,47.5589394 18.9639539,47.8492904 18.9639539,48.2680658 L19.4504333,48.2680658 Z M23.332441,47.2350864 L22.8459616,47.2350864 L22.8459616,48.8655188 L21.4915586,48.8655188 L21.4915586,47.2350864 L21.0050791,47.2350864 L21.0050791,51.2218286 L21.4915586,51.2218286 L21.4915586,49.3010452 L22.8459616,49.3010452 L22.8459616,51.2218286 L23.332441,51.2218286 L23.332441,47.2350864 Z M28.1996924,47.6706128 L29.1947641,47.6706128 L29.1947641,47.2350864 L26.7236696,47.2350864 L26.7236696,47.6706128 L27.713213,47.6706128 L27.713213,51.2218286 L28.1996924,51.2218286 L28.1996924,47.6706128 Z M30.5116983,51.2218286 L32.6179332,51.2218286 L32.6179332,50.7863021 L30.9981777,50.7863021 L30.9981777,49.3568819 L32.4631443,49.3568819 L32.4631443,48.9213555 L30.9981777,48.9213555 L30.9981777,47.6706128 L32.5515951,47.6706128 L32.5515951,47.2350864 L30.5116983,47.2350864 L30.5116983,51.2218286 Z M36.1848349,48.2680658 C36.1737785,47.5366047 35.8310316,47.156915 35.0791998,47.156915 C34.0786,47.156915 33.9238111,47.8883761 33.9238111,48.2568984 C33.9238111,49.7198207 35.7868062,49.066531 35.7868062,50.1944328 C35.7868062,50.6187919 35.4882848,50.8979756 35.1013125,50.8979756 C34.3881778,50.8979756 34.3605369,50.4177797 34.3605369,49.9710859 L33.8740575,49.9710859 C33.8740575,50.8198042 34.1449381,51.3 35.0681434,51.3 C35.6264892,51.3 36.2953984,51.0375674 36.2953984,50.1162614 C36.2953984,48.6589229 34.4324032,49.3289636 34.4324032,48.2066454 C34.4324032,47.7822863 34.675643,47.5589394 35.0847279,47.5589394 C35.5490947,47.5589394 35.6983554,47.8492904 35.6983554,48.2680658 L36.1848349,48.2680658 Z M38.9390948,47.6706128 L39.9341664,47.6706128 L39.9341664,47.2350864 L37.4630719,47.2350864 L37.4630719,47.6706128 L38.4526153,47.6706128 L38.4526153,51.2218286 L38.9390948,51.2218286 L38.9390948,47.6706128 Z" id="EF-STANDARD-ENGLISH" fill="#FFFFFF"></path>
                <path d="M0.562330623,4.6373117 L0,4.6373117 L0,0 L1.81571816,0 C2.72357724,0 3.23170732,0.6396292 3.23170732,1.39745075 C3.23170732,2.15527231 2.7100271,2.79490151 1.81571816,2.79490151 L0.562330623,2.79490151 L0.562330623,4.6373117 Z M1.74796748,2.28041715 C2.28319783,2.28041715 2.64905149,1.9188876 2.64905149,1.39745075 C2.64905149,0.876013905 2.28319783,0.514484357 1.74796748,0.514484357 L0.562330623,0.514484357 L0.562330623,2.28041715 L1.74796748,2.28041715 Z M5.38617886,4.7207416 C4.3902439,4.7207416 3.76693767,3.92815759 3.76693767,2.95480881 C3.76693767,1.98146002 4.3902439,1.19582851 5.38617886,1.19582851 C6.38211382,1.19582851 7.00542005,1.98146002 7.00542005,2.95480881 C7.00542005,3.92815759 6.38211382,4.7207416 5.38617886,4.7207416 Z M5.38617886,4.25492468 C6.08401084,4.25492468 6.4701897,3.64310545 6.4701897,2.95480881 C6.4701897,2.27346466 6.08401084,1.66164542 5.38617886,1.66164542 C4.68834688,1.66164542 4.29539295,2.27346466 4.29539295,2.95480881 C4.29539295,3.64310545 4.68834688,4.25492468 5.38617886,4.25492468 Z M11.1720867,4.6373117 L12.2154472,1.2792584 L11.6869919,1.2792584 L10.8875339,3.95596756 L10.0271003,1.2792584 L9.59349593,1.2792584 L8.73306233,3.95596756 L7.93360434,1.2792584 L7.40514905,1.2792584 L8.44850949,4.6373117 L8.95663957,4.6373117 L9.8102981,1.93974508 L10.6639566,4.6373117 L11.1720867,4.6373117 Z M14.2818428,4.7207416 C13.3130081,4.7207416 12.6151762,4.00463499 12.6151762,2.95480881 C12.6151762,1.98146002 13.2926829,1.19582851 14.2276423,1.19582851 C15.2168022,1.19582851 15.799458,1.98841251 15.799458,2.99652375 L15.799458,3.12862109 L13.1504065,3.12862109 C13.1910569,3.7612978 13.6246612,4.28968714 14.3292683,4.28968714 C14.701897,4.28968714 15.0813008,4.13673233 15.3387534,3.86558517 L15.5826558,4.20625724 C15.2574526,4.53997683 14.8170732,4.7207416 14.2818428,4.7207416 Z M15.298103,2.74623407 C15.2913279,2.24565469 14.9661247,1.62688297 14.2208672,1.62688297 C13.5230352,1.62688297 13.1775068,2.23174971 13.1504065,2.74623407 L15.298103,2.74623407 Z M17.1273713,4.6373117 L17.1273713,2.25955968 C17.2764228,1.98841251 17.703252,1.72421784 18.0149051,1.72421784 C18.096206,1.72421784 18.1571816,1.73117034 18.2181572,1.74507532 L18.2181572,1.20973349 C17.7710027,1.20973349 17.3915989,1.46697567 17.1273713,1.82155272 L17.1273713,1.2792584 L16.6192412,1.2792584 L16.6192412,4.6373117 L17.1273713,4.6373117 Z M20.3319783,4.7207416 C19.3631436,4.7207416 18.6653117,4.00463499 18.6653117,2.95480881 C18.6653117,1.98146002 19.3428184,1.19582851 20.2777778,1.19582851 C21.2669377,1.19582851 21.8495935,1.98841251 21.8495935,2.99652375 L21.8495935,3.12862109 L19.200542,3.12862109 C19.2411924,3.7612978 19.6747967,4.28968714 20.3794038,4.28968714 C20.7520325,4.28968714 21.1314363,4.13673233 21.3888889,3.86558517 L21.6327913,4.20625724 C21.3075881,4.53997683 20.8672087,4.7207416 20.3319783,4.7207416 Z M21.3482385,2.74623407 C21.3414634,2.24565469 21.0162602,1.62688297 20.2710027,1.62688297 C19.5731707,1.62688297 19.2276423,2.23174971 19.200542,2.74623407 L21.3482385,2.74623407 Z M25.5487805,4.6373117 L25.0406504,4.6373117 L25.0406504,4.13673233 C24.796748,4.4774044 24.397019,4.7207416 23.9363144,4.7207416 C23.0826558,4.7207416 22.4796748,4.05330243 22.4796748,2.9617613 C22.4796748,1.89107764 23.0758808,1.19582851 23.9363144,1.19582851 C24.3766938,1.19582851 24.7764228,1.41830823 25.0406504,1.78679027 L25.0406504,0 L25.5487805,0 L25.5487805,4.6373117 Z M24.0582656,4.25492468 C24.4647696,4.25492468 24.8577236,4.01853998 25.0406504,3.72653534 L25.0406504,2.20393975 C24.8577236,1.91193511 24.4647696,1.66164542 24.0582656,1.66164542 C23.401084,1.66164542 23.0081301,2.21784473 23.0081301,2.9617613 C23.0081301,3.70567787 23.401084,4.25492468 24.0582656,4.25492468 Z M28.8211382,3.72653534 C28.99729,4.01853998 29.397019,4.25492468 29.796748,4.25492468 C30.4607046,4.25492468 30.8536585,3.70567787 30.8536585,2.9617613 C30.8536585,2.21784473 30.4607046,1.66164542 29.796748,1.66164542 C29.397019,1.66164542 28.99729,1.91193511 28.8211382,2.20393975 L28.8211382,3.72653534 Z M28.8211382,4.6373117 L28.3130081,4.6373117 L28.3130081,0 L28.8211382,0 L28.8211382,1.78679027 C29.0853659,1.41830823 29.4783198,1.19582851 29.9254743,1.19582851 C30.7791328,1.19582851 31.3821138,1.89107764 31.3821138,2.9617613 C31.3821138,4.05330243 30.7791328,4.7207416 29.9254743,4.7207416 C29.4647696,4.7207416 29.0650407,4.4774044 28.8211382,4.13673233 L28.8211382,4.6373117 Z M32.0257453,5.95133256 C32.1205962,5.97914253 32.2899729,6 32.398374,6 C32.8319783,5.99304751 33.1639566,5.80533024 33.3604336,5.31865585 L35,1.2792584 L34.4444444,1.2792584 L33.3604336,4.03244496 L32.2696477,1.2792584 L31.7208672,1.2792584 L33.0894309,4.67207416 L32.8726287,5.17960603 C32.7574526,5.45770568 32.6084011,5.53418308 32.3848238,5.53418308 C32.303523,5.53418308 32.1815718,5.51332561 32.1070461,5.47856315 L32.0257453,5.95133256 Z" id="Powered-by" fill="#999999"></path>
            </g>
        </g>
    </g>
</svg>